HIERARCHY
ROOT joint_0
{
	OFFSET 0.000000 0.000000 0.000000
	CHANNELS 6 Xposition Yposition Zposition Zrotation Yrotation Xrotation 
	JOINT joint_1
	{
		OFFSET 8.185791 -2.713684 100.414917
		CHANNELS 3 Zrotation Yrotation Xrotation
		JOINT joint_2
		{
			OFFSET -4.376465 -1.111145 91.934082
			CHANNELS 3 Zrotation Yrotation Xrotation
			JOINT joint_3
			{
				OFFSET -6.985840 -1.054016 91.669922
				CHANNELS 3 Zrotation Yrotation Xrotation
				JOINT joint_4
				{
					OFFSET 0.150391 -4.451904 123.526001
					CHANNELS 3 Zrotation Yrotation Xrotation
					JOINT joint_5
					{
						OFFSET 19.754150 -8.123901 80.916992
						CHANNELS 3 Zrotation Yrotation Xrotation
						End Site
						{
							OFFSET 0.000000 0.000000 0.000000
						}
					}
				}
				JOINT joint_6
				{
					OFFSET -6.477539 -28.517334 68.237061
					CHANNELS 3 Zrotation Yrotation Xrotation
					JOINT joint_7
					{
						OFFSET -20.564453 -115.426208 -21.139038
						CHANNELS 3 Zrotation Yrotation Xrotation
						JOINT joint_8
						{
							OFFSET 18.981934 -19.826172 -267.898926
							CHANNELS 3 Zrotation Yrotation Xrotation
							JOINT joint_9
							{
								OFFSET 11.562744 -19.325867 -235.478027
								CHANNELS 3 Zrotation Yrotation Xrotation
								End Site
								{
									OFFSET 0.000000 0.000000 0.000000
								}
							}
						}
					}
				}
				JOINT joint_10
				{
					OFFSET 7.033936 23.504700 70.088989
					CHANNELS 3 Zrotation Yrotation Xrotation
					JOINT joint_11
					{
						OFFSET 36.629639 112.486816 -14.036987
						CHANNELS 3 Zrotation Yrotation Xrotation
						JOINT joint_12
						{
							OFFSET 41.355225 -7.048523 -266.019897
							CHANNELS 3 Zrotation Yrotation Xrotation
							JOINT joint_13
							{
								OFFSET 5.858887 29.785156 -234.603027
								CHANNELS 3 Zrotation Yrotation Xrotation
								End Site
								{
									OFFSET 0.000000 0.000000 0.000000
								}
							}
						}
					}
				}
			}
		}
	}
	JOINT joint_14
	{
		OFFSET -8.917725 -79.985535 -99.035034
		CHANNELS 3 Zrotation Yrotation Xrotation
		JOINT joint_15
		{
			OFFSET -32.739502 -31.478882 -502.570984
			CHANNELS 3 Zrotation Yrotation Xrotation
			JOINT joint_16
			{
				OFFSET 7.393066 -29.352966 -399.008011
				CHANNELS 3 Zrotation Yrotation Xrotation
				JOINT joint_17
				{
					OFFSET 178.013916 -26.060303 -71.875002
					CHANNELS 3 Zrotation Yrotation Xrotation
					End Site
					{
						OFFSET 0.000000 0.000000 0.000000
					}
				}
			}
		}
	}
	JOINT joint_18
	{
		OFFSET 1.900879 81.159851 -98.481018
		CHANNELS 3 Zrotation Yrotation Xrotation
		JOINT joint_19
		{
			OFFSET -15.120850 31.602051 -503.400024
			CHANNELS 3 Zrotation Yrotation Xrotation
			JOINT joint_20
			{
				OFFSET -16.653076 23.887695 -399.091988
				CHANNELS 3 Zrotation Yrotation Xrotation
				JOINT joint_21
				{
					OFFSET 179.618164 -1.217651 -72.592001
					CHANNELS 3 Zrotation Yrotation Xrotation
					End Site
					{
						OFFSET 0.000000 0.000000 0.000000
					}
				}
			}
		}
	}
}
MOTION
Frames: 7
Frame Time: 0.016667
-3009.905029 770.552307 1090.796021 -2.759567 12.578490 1.863538 4.297097 -0.623428 -0.446605 4.384964 0.049007 0.284947 4.238627 -0.196526 -0.387738 -0.541181 -8.381829 -2.101600 0.000000 0.000000 0.000000 -6.867334 13.482651 -3.913356 3.100179 9.271175 7.964364 -0.129923 0.381066 -2.248783 0.000000 0.000000 0.000000 5.134592 4.633884 6.672185 -2.062027 7.000452 -0.833247 -1.272938 -5.272486 -7.533005 0.000000 0.000000 0.000000 0.914679 -31.967799 -1.767176 0.232061 68.296194 -1.686233 8.898189 0.143085 2.138206 0.000000 0.000000 0.000000 -3.000204 -6.482070 -4.629205 0.037318 23.747282 1.865108 -1.740057 -3.216086 -0.557058 0.000000 0.000000 0.000000 
-2991.883789 766.405396 1087.979004 -1.835933 12.471731 2.400235 4.417650 0.272267 -0.635534 4.127570 -0.132921 0.312246 3.907704 -0.031456 -0.349914 -0.524443 -8.272047 -2.116568 0.000000 0.000000 0.000000 -7.104528 13.859058 -3.233905 3.237204 9.677096 6.842582 0.040084 -0.887124 -2.227944 0.000000 0.000000 0.000000 5.133463 4.411007 6.934321 -1.865119 6.665242 -0.012384 -1.342988 -5.277121 -8.501628 0.000000 0.000000 0.000000 -0.783047 -35.693222 -1.077090 -0.451760 73.555493 -4.325892 7.702300 -0.069024 1.326630 0.000000 0.000000 0.000000 -3.382843 -5.675167 -4.723043 -0.317983 24.155507 1.557669 -1.954869 -2.789068 -0.600879 0.000000 0.000000 0.000000 
-2972.906982 762.600281 1085.171997 -1.170036 12.425330 2.730161 4.596622 1.127470 -0.460979 3.861509 -0.327481 0.275590 3.585508 0.162952 -0.252660 -0.506361 -8.199525 -2.136277 0.000000 0.000000 0.000000 -7.160479 14.067494 -2.534049 3.322945 10.006319 5.654702 0.141986 -1.705195 -2.401601 0.000000 0.000000 0.000000 5.244713 4.227694 6.975068 -1.702565 6.341160 0.636917 -1.382552 -5.214542 -9.171455 0.000000 0.000000 0.000000 -2.003130 -39.253450 -0.711885 -0.878116 76.636334 -5.930912 6.395547 -1.194890 0.438057 0.000000 0.000000 0.000000 -3.424416 -4.630215 -4.768646 -0.574612 24.085878 1.441180 -2.021259 -2.228068 -0.594891 0.000000 0.000000 0.000000 
-2953.211182 758.959290 1082.181030 -0.716055 12.452490 2.884920 4.800131 1.911489 0.047263 3.596083 -0.502385 0.162619 3.295380 0.375877 -0.109641 -0.480275 -8.141953 -2.176744 0.000000 0.000000 0.000000 -7.032042 14.141336 -1.739651 3.356398 10.306261 4.308921 0.208912 -2.294612 -2.708511 0.000000 0.000000 0.000000 5.438537 4.075166 6.841649 -1.540018 6.007804 1.194414 -1.389725 -5.069491 -9.640667 0.000000 0.000000 0.000000 -2.923921 -42.813439 -0.503712 -1.176038 77.998106 -6.925559 4.923968 -3.230561 -0.554053 0.000000 0.000000 0.000000 -3.181957 -3.383273 -4.739007 -0.733577 23.574726 1.458039 -1.944432 -1.603675 -0.542103 0.000000 0.000000 0.000000 
-2932.901611 754.870056 1078.863037 -0.216398 12.425870 3.034381 4.996847 2.731459 0.575795 3.347201 -0.693433 0.048175 3.030506 0.562350 0.026359 -0.460491 -8.126590 -2.214631 0.000000 0.000000 0.000000 -6.858865 14.122590 -1.049501 3.354517 10.544121 3.157630 0.246058 -2.653477 -3.002347 0.000000 0.000000 0.000000 5.485851 3.953378 6.777021 -1.475961 5.789546 1.650245 -1.428220 -5.126395 -10.026424 0.000000 0.000000 0.000000 -3.441811 -45.844364 -0.545120 -1.403180 77.378625 -7.443021 3.727699 -5.754785 -1.290108 0.000000 0.000000 0.000000 -2.890741 -2.161120 -4.631737 -0.877123 23.256032 1.473119 -1.922304 -0.870252 -0.509111 0.000000 0.000000 0.000000 
-2912.114746 749.884216 1075.321045 0.320345 12.365362 3.233238 5.116628 3.503677 0.929723 3.206549 -0.832752 -0.013339 2.911357 0.702993 0.109045 -0.465518 -8.224221 -2.227796 0.000000 0.000000 0.000000 -6.744797 13.999356 -0.628979 3.331205 10.666019 2.489058 0.252080 -2.746176 -3.191370 0.000000 0.000000 0.000000 5.193552 3.852148 6.957566 -1.603860 5.790379 1.952596 -1.545174 -5.615591 -10.364508 0.000000 0.000000 0.000000 -3.376430 -47.992113 -0.889246 -1.594504 74.027314 -7.682651 2.905355 -8.562041 -1.612151 0.000000 0.000000 0.000000 -2.660762 -1.203338 -4.431377 -0.970792 23.514542 1.391813 -1.993159 0.055529 -0.506768 0.000000 0.000000 0.000000 
-2890.820801 744.228577 1071.609009 0.800500 12.317792 3.423174 5.091872 4.202956 1.206151 3.201420 -0.915757 -0.043729 2.986625 0.819192 0.157831 -0.490009 -8.428071 -2.228297 0.000000 0.000000 0.000000 -6.652178 13.756133 -0.425888 3.283202 10.676125 2.180270 0.226561 -2.581005 -3.320326 0.000000 0.000000 0.000000 4.645516 3.770006 7.294059 -1.898097 5.967277 2.104526 -1.717681 -6.435465 -10.599252 0.000000 0.000000 0.000000 -2.741541 -49.188159 -1.614661 -1.750443 67.424008 -7.544113 2.397568 -10.891154 -1.622911 0.000000 0.000000 0.000000 -2.442691 -0.421940 -4.149227 -0.960445 24.094375 1.267119 -2.058028 1.190648 -0.502289 0.000000 0.000000 0.000000 
